<?xml version="1.0" encoding="UTF-8"?>
<svg id="Layer_1" xmlns="http://www.w3.org/2000/svg" version="1.1" viewBox="0 0 500 500">
  <!-- Generator: Adobe Illustrator 29.0.0, SVG Export Plug-In . SVG Version: 2.1.0 Build 186)  -->
  <defs>
    <style>
      .st0 {
        fill: #154471;
      }

      .st1 {
        fill: #48c6e1;
      }

      .st2 {
        fill: #42b4e6;
      }

      .st3 {
        fill: #50dad7;
      }
    </style>
  </defs>
  <path class="st0" d="M304.14,266.44c-1.8.72-9.64,27.75-11.22,31.49-.55.36-12.27.27-13.13-.02-.81-.27-1.09-1.03-1.34-1.75l-15.51-45.17c-1.32-4.77,3.32-2.5,6.24-2.45,2.24.04,4.41-1.51,6.16.6l10.24,34.02,1.23-.62c2.47-7.14,4.43-14.5,6.81-21.67,1.53.32,1.31-.72,1.69-1.68.74-1.85,2.81-9.76,3.87-10.4.64-.38,10.44-.59,11.39-.34s.01,3.61,2.24,3.13c.31.73.34,1.71.62,2.48-1.23.57-.23,1.97,0,2.79,1.02,3.76,7.04,24.05,8.67,25.69.1.1.44-.09.62,0,.22.11.41.89,1.23.62l9.94-34.64c4.06.33,8.45-.66,12.29.04.92,1.48-4.05,13.28-4.79,15.91-.22.78.54,1.29.52,1.36-3.26,10.95-7.51,21.67-11.15,32.49-1.27,1.24-11.94,1.34-13.79.8-2.42-.7-2.79-4.7-3.53-6.68,1.19-.55.26-1.98.02-2.8-2.31-7.64-5.4-15.06-7.42-22.8-.14-.69-.76-.4-1.26-.4-.21,0-.49-.05-.62,0Z"/>
  <path class="st3" d="M372.24,276.35c5.13,16.29,28.41,14.54,29.71-2.79l.13-41.97c.72-2.69,11.6-1.92,12.63-1.11.68.54.88,1.37.9,2.2-2.05,15.32,4.22,42-3.85,55.02-13.52,21.8-50.26,15-53.05-11.73l.05-44.37c.91-3.1,9.66-1.11,12.49-1.7.76.15.26.95.39,1.26l-.04,43.71c-.24.68.57,1.23.65,1.48Z"/>
  <path class="st3" d="M466.34,296.16l-.32-.61c-1.05.24-1.92,1.73-3.4,2.47-.19.05-.42-.05-.62,0-7.51,1.9-13.21,1.57-20.43-1.24-1.68-1.11-3.33-2.13-4.65-3.7-.41.1-.24.54-.31.61-1.73,1.99.02,19.76-.62,23.52h-11.77s-.62-66.24-.62-66.24c.06-.39-.09-.9,0-1.24l.62-.62c1.53-1.63,8.65-1.72,10.71-1.11,2.47.73,1.25,3.72,1.98,5.44,11.49-11.72,30.12-7.91,37.7,6.26,6.42,12.01,3.69,29.08-8.29,36.46ZM448.23,259.18c-17.2,2.37-15.31,31.65,4.74,28.88,16.5-2.28,14.85-31.57-4.74-28.88Z"/>
  <path class="st0" d="M255.85,257.16l2.34,4.78c2.2,5.15,2.26,10.37,1.93,15.89l-1.79,7.8c-.87,1.8-1.32,2.24-2.48,3.71-2.05.72-3.13,3.17-4.99,4.6-7.72,5.92-18.46,7.28-27.6,4.16l-7.03-3.19c-6.12-4.56-9.25-9.72-10.52-17.33,1.11-4.54.42-9.25,2.06-13.73l2.28-5.46c1.06-1.59,1.92-3.38,3.71-4.33,2.67-1.39,6.98-4.59,11.27-5.76,4.56-1.24,8.48-.63,12.88-1.67,7.48,1.16,13.35,4.53,17.95,10.52ZM236.66,259.01l.32-.62c-10.66-1.48-19.56,5.28-18.91,16.43.74,12.74,16.03,18.81,25.4,10.19.08-.05.92-.94,1.24-1.24,6.44-6.05,5.88-14.22,0-20.43-.27-.29-1.03-1.06-1.24-1.24-.76-.63-1.38-1.76-2.56-2.18-.84-.31-1.1.34-1.16.33-.78-.23-2.72-1.2-3.1-1.24Z"/>
  <path class="st2" d="M103.57,255.92c-.16,18.31-13.23,34.73-29.71,41.48-.57-1.23-1.97-.23-2.79,0-17.13,4.63-31.83,4.74-47.96-3.42-.62-.31-2.13-1.51-2.5-.29-1.85-1.03-7.82-3.22-4.69-5.62,1.08-.83,10.41-2.16,13.07-3.03,4.05-1.32,9.04-3.96,12.67-6.21l-2.47,2.18c-.29,1.49,1.17.97,2.02.78,19.29-4.37,35.26-9.08,53.53-16.43,6.35-2.55,6.9.18,7.61-7.28.11-1.17-.74-2.5,1.22-2.16Z"/>
  <path class="st0" d="M146.28,275.11l-1.24-.93c-.71,3.77,1.06,21.88-.27,23.86-.73,1.09-9.44-.72-11.49-.03v-66.86c.61.2,1.34-.62,1.55-.62h42.72c.07,0,.93.86.93.93v10.21h-32.19c-.24.15.63,1.03.62,1.24,0,.11-.6.66-.62,1.24l-1.24-.93c.13,4.95-.16,9.93,0,14.88.04,1.19-.63,2.48,1.24,2.14.04.22-.07.49,0,.62.71,1.43,23.27.2,26.62.62v11.14c-3.24.4-26.07-.78-26.62.62-.13.34.04,1.31,0,1.86Z"/>
  <path class="st3" d="M96.14,234.87c.49.8,3,5.05,2.47,5.57-1.16-.23-1.84-.58-3.1-.38-1.57.25-9.66,3.56-11.74,4.42-5.04,2.09-13.94,7.76-18.42,8.81-2.96.7-2.8.38-3.88-1.71-3.73-7.21-6.16-7.93-14.47-7.35-4.26.3-13.81,3.57-16.78,3.03-4.65-.86,3.1-9.36,4.61-10.87,15.19-15.28,48.49-22.64,61.31-1.52Z"/>
  <path class="st1" d="M102.95,249.11c-1.65,1.07-.16,2.88,0,3.71.2,1.04.63,1.97.62,3.1-1.96-.34-1.11.98-1.22,2.16-.71,7.46-1.27,4.73-7.61,7.28-18.27,7.34-34.24,12.05-53.53,16.43-.84.19-2.31.72-2.02-.78l2.47-2.18c9.21-5.71,20.37-15.38,19.81-27.24,1.08,2.1.92,2.41,3.88,1.71,4.48-1.06,13.38-6.73,18.42-8.81,2.08-.86,10.17-4.17,11.74-4.42,1.26-.2,1.94.15,3.1.38.52-.52-1.98-4.77-2.47-5.57,3.58,3.37,6.32,9.37,6.81,14.24Z"/>
  <path class="st0" d="M198.9,297.4c-.04.47.25,1.03-.36,1.3-1.97.76-13.26,1.38-13.26-.99v-66.24c0-2.37,11.29-1.74,13.26-.99l.36,1.3v65.62Z"/>
</svg>
