<?xml version="1.0" encoding="utf-8"?>
<!-- Generator: Adobe Illustrator 28.7.2, SVG Export Plug-In . SVG Version: 9.03 Build 54978)  -->
<svg version="1.1" id="Layer_1" xmlns="http://www.w3.org/2000/svg" xmlns:xlink="http://www.w3.org/1999/xlink" x="0px" y="0px"
	 viewBox="0 0 1920 1080" style="enable-background:new 0 0 1920 1080;" xml:space="preserve">
<style type="text/css">
	.st0{fill:url(#SVGID_1_);}
	.st1{fill:#154471; font-family:'Poppins-SemiBold', sans-serif; font-size:267.6892px;}
	.st2{fill:#50DAD7; font-family:'Poppins-SemiBold', sans-serif; font-size:267.6892px;}
</style>
<g>
	<linearGradient id="SVGID_1_" gradientUnits="userSpaceOnUse" x1="404.0922" y1="332.1786" x2="318.0209" y2="921.0545">
		<stop  offset="0" style="stop-color:#5BDCD1"/>
		<stop  offset="1" style="stop-color:#47B3DF"/>
	</linearGradient>
	<path class="st0" d="M292.86,415.51c19.24-33.18,53.05-46.22,58.93-48.4c8.67-3.21,61.74-22.84,109.6,9.21
		c5.95,3.99,39.29,27.16,47.18,70.82c7.68,42.47-14.04,74.89-23.8,89.46c-21.89,32.69-51.85,48.38-69.76,55.36
		c-37.04,14.45-68.75,9.99-91.33,6.49c-38.42-5.96-81.52-23.16-80.05-34.51c1.13-8.73,26.83-5.09,64.47-21.87
		c9.48-4.23,59.79-27.94,65.16-69.62c0.54-4.2,3.57-27.72-9.67-38.15c-21.69-17.08-67.93,15.62-76.92,3.73
		C282.78,432.89,288.98,422.2,292.86,415.51z"/>
	<text x="554.9357" y="575.9892" class="st1">Flow</text>
	<text x="1181.8683" y="575.9892" class="st2">Up</text>
</g>
</svg>
