<?xml version="1.0" encoding="UTF-8"?>
<svg id="Layer_1" xmlns="http://www.w3.org/2000/svg" version="1.1" xmlns:xlink="http://www.w3.org/1999/xlink" viewBox="0 0 1304 299">
  <!-- Generator: Adobe Illustrator 29.0.0, SVG Export Plug-In . SVG Version: 2.1.0 Build 186)  -->
  <defs>
    <style>
      .st0 {
        fill: #50dad7;
      }

      .st0, .st1 {
        font-family: Poppins-SemiBold, Poppins;
        font-size: 267.7px;
        font-weight: 600;
      }

      .st1 {
        fill: #154471;
      }

      .st2 {
        fill: url(#Gradiente_sem_nome_107);
      }
    </style>
    <linearGradient id="Gradiente_sem_nome_107" data-name="Gradiente sem nome 107" x1="167.1" y1="-19.8" x2="81" y2="569.1" gradientUnits="userSpaceOnUse">
      <stop offset="0" stop-color="#5bdcd1"/>
      <stop offset="1" stop-color="#47b3df"/>
    </linearGradient>
  </defs>
  <path class="st2" d="M55.9,63.5c19.2-33.2,53.1-46.2,58.9-48.4,8.7-3.2,61.7-22.8,109.6,9.2,6,4,39.3,27.2,47.2,70.8,7.7,42.5-14,74.9-23.8,89.5-21.9,32.7-51.8,48.4-69.8,55.4-37,14.4-68.8,10-91.3,6.5-38.4-6-81.5-23.2-80.1-34.5,1.1-8.7,26.8-5.1,64.5-21.9,9.5-4.2,59.8-27.9,65.2-69.6.5-4.2,3.6-27.7-9.7-38.2-21.7-17.1-67.9,15.6-76.9,3.7-3.9-5.1,2.3-15.8,6.2-22.5Z"/>
  <text class="st1" transform="translate(317.9 224)"><tspan x="0" y="0">Flow</tspan></text>
  <text class="st0" transform="translate(944.9 224)"><tspan x="0" y="0">Up</tspan></text>
</svg>