<?xml version="1.0" encoding="UTF-8"?>
<svg id="Camada_1" xmlns="http://www.w3.org/2000/svg" version="1.1" viewBox="0 0 293.6 449.7">
  <!-- Generator: Adobe Illustrator 29.0.0, SVG Export Plug-In . SVG Version: 2.1.0 Build 186)  -->
  <defs>
    <style>
      .st0 {
        fill: #5797d1;
      }

      .st1 {
        fill: #1b2d4f;
      }

      .st2 {
        fill: #fff;
      }

      .st3 {
        fill: #66c1c9;
      }

      .st4 {
        fill: #5698d2;
      }

      .st5 {
        fill: #1d2a4b;
      }

      .st6 {
        fill: #3679bd;
      }
    </style>
  </defs>
  <g>
    <rect class="st6" x="141.6" y="192.6" width="55.3" height="21.1"/>
    <path class="st5" d="M140.1,191.1h58.3v24.1h-58.3v-24.1ZM195.4,194.1h-52.3s0,18.1,0,18.1h52.3s0-18.1,0-18.1Z"/>
  </g>
  <g>
    <path class="st6" d="M268.7,112h0c-6.4,0-11.6,5.2-11.6,11.6v24.9c0,6.4,5.2,11.6,11.6,11.6h0c7.6,0,13.7-6.1,13.7-13.7v-20.7c0-7.6-6.1-13.7-13.7-13.7h0Z"/>
    <path class="st5" d="M268.7,161.6c-7.2,0-13.1-5.9-13.1-13.1v-24.9c0-7.2,4.7-13.1,13.1-13.1s15.2,6.8,15.2,15.2v20.7c0,8.4-6.8,15.2-15.2,15.2h0ZM268.7,113.5c-5.6,0-10.1,4.5-10.1,10.1v24.9c0,5.6,3.4,10.1,10.1,10.1s12.2-5.5,12.2-12.2v-20.7c0-6.7-5.5-12.2-12.2-12.2h0Z"/>
  </g>
  <g>
    <path class="st6" d="M268.7,112h0c-6.4,0-11.6,5.2-11.6,11.6v24.9c0,6.4,5.2,11.6,11.6,11.6h0c7.6,0,13.7-6.1,13.7-13.7v-20.7c0-7.6-6.1-13.7-13.7-13.7h0Z"/>
    <path class="st5" d="M268.7,161.6c-7.2,0-13.1-5.9-13.1-13.1v-24.9c0-7.2,4.7-13.1,13.1-13.1s15.2,6.8,15.2,15.2v20.7c0,8.4-6.8,15.2-15.2,15.2h0ZM268.7,113.5c-5.6,0-10.1,4.5-10.1,10.1v24.9c0,5.6,3.4,10.1,10.1,10.1s12.2-5.5,12.2-12.2v-20.7c0-6.7-5.5-12.2-12.2-12.2h0Z"/>
  </g>
  <g>
    <path class="st6" d="M72.1,160h0c6.4,0,11.6-5.2,11.6-11.6v-24.9c0-6.4-5.2-11.6-11.6-11.6h0c-7.6,0-13.7,6.1-13.7,13.7v20.7c0,7.6,6.1,13.7,13.7,13.7h0Z"/>
    <path class="st5" d="M72.2,161.6c-8.4,0-15.2-6.8-15.2-15.2v-20.7c0-8.4,8-15.2,15.2-15.2s13.1,5.9,13.1,13.1v24.9c0,7.2-5.9,13.1-13.1,13.1h0ZM72.2,113.5c-6.7,0-12.2,5.5-12.2,12.2v20.7c0,6.7,6.6,12.2,12.2,12.2s10.1-4.5,10.1-10.1v-24.9c0-5.6-4.5-10.1-10.1-10.1h0Z"/>
  </g>
  <g>
    <g>
      <rect class="st0" x="71.1" y="71.7" width="195.9" height="125.5" rx="46.7" ry="46.7"/>
      <path class="st5" d="M69.7,150.5v-32c0-26.6,21.6-48.2,48.2-48.2h102.4c26.6,0,48.2,21.6,48.2,48.2v32c0,26.6-21.6,48.2-48.2,48.2h-102.4c-26.6,0-48.2-21.6-48.2-48.2ZM117.9,73.2c-24.9,0-45.2,20.3-45.2,45.2v32c0,24.9,20.3,45.2,45.2,45.2h102.4c24.9,0,45.2-20.3,45.2-45.2v-32c0-24.9-20.3-45.2-45.2-45.2h-102.4Z"/>
    </g>
    <rect class="st2" x="94.6" y="87.9" width="149.5" height="93.5" rx="29.6" ry="29.6"/>
    <path class="st1" d="M207.6,113.3h0c-4.9,0-8.9,4-8.9,8.9v21.6c0,4.9,4,8.9,8.9,8.9h0c4.9,0,8.9-4,8.9-8.9v-21.6c0-4.9-4-8.9-8.9-8.9Z"/>
    <path class="st1" d="M131.1,113.3h0c-4.9,0-8.9,4-8.9,8.9v21.6c0,4.9,4,8.9,8.9,8.9h0c4.9,0,8.9-4,8.9-8.9v-21.6c0-4.9-4-8.9-8.9-8.9Z"/>
    <path class="st5" d="M169,170.1c8.1,0,16-4.5,20.5-12,.7-1.2.3-2.7-.9-3.4s-2.7-.3-3.4.9c-4.1,6.8-11.7,10.6-19,9.4-7.9-1.3-12-8-12.7-9.3-.7-1.2-2.2-1.6-3.4-1-1.2.7-1.6,2.2-1,3.4.9,1.7,6.1,10.1,16.2,11.8,1.2.2,2.4.3,3.5.3h.2Z"/>
    <g>
      <rect class="st0" x="163.5" y="38.4" width="11.3" height="33.3"/>
      <path class="st5" d="M161.9,36.9h14.3v36.3h-14.3v-36.3ZM173.3,39.9h-8.3s0,30.3,0,30.3h8.3s0-30.3,0-30.3Z"/>
    </g>
    <g>
      <circle class="st0" cx="169.1" cy="22.9" r="15.6"/>
      <path class="st5" d="M152,22.8c0-9.4,7.7-17.1,17.1-17.1s17.1,7.7,17.1,17.1-7.7,17.1-17.1,17.1-17.1-7.7-17.1-17.1ZM155,22.9c0,7.8,6.3,14.1,14.1,14.1s14.1-6.3,14.1-14.1-6.3-14.1-14.1-14.1c-7.8,0-14.1,6.3-14.1,14.1Z"/>
    </g>
  </g>
  <g>
    <path class="st6" d="M48,148l-25.8,6.7c2.2,10.4,7.2,26.5,19.2,42.6,22.6,30.5,54.4,39.7,65,42.3l16-23.9c-8.7-1.6-31.6-7.2-51.2-27.4-14.7-15.2-20.6-31.7-23.1-40.3h-.1Z"/>
    <path class="st5" d="M107,241.2l-1-.2c-15.5-3.8-44.7-14.5-65.8-42.9-9.4-12.8-16-27.3-19.4-43.2l-.3-1.4,28.6-7.4.4,1.4c2.9,10.5,9.3,25.8,22.7,39.7,18,18.6,39.3,24.9,50.4,27l2.2.4-17.8,26.6h0ZM119.8,216.7c-11.9-2.6-32.4-9.4-49.8-27.4-13.3-13.7-19.8-28.8-23-39.5l-23,5.9c3.4,14.9,9.7,28.6,18.6,40.6,20.1,27.1,47.7,37.6,63.1,41.5l14.1-21.1h0Z"/>
  </g>
  <g>
    <path class="st6" d="M248.1,295.6l31.2,10.2c.3-5.8,1.8-54-33.9-80.6-11.4-8.5-23.3-12.4-32.3-14.2-3.5,8.2-7,16.4-10.5,24.6,5.1,1.7,31.2,11.2,41.5,37.3,3.4,8.6,4.1,16.7,4,22.7Z"/>
    <path class="st5" d="M280.7,307.8l-34.1-11.2v-1.1c0-7.7-1.2-15.2-3.9-22.1-9.6-24.2-33.5-34-40.6-36.4l-1.5-.5,11.6-27.2,1.2.2c12.3,2.5,23.4,7.4,32.9,14.5,35.3,26.3,34.9,72.8,34.4,81.9v2h0ZM214,212.8l-9.4,22c8.9,3.2,31.5,13.7,40.9,37.6,2.7,7,4.1,14.4,4.1,22.2l28.2,9.2c.3-12.2-1.3-53.5-33.3-77.4-8.8-6.7-19.1-11.2-30.5-13.7h0Z"/>
  </g>
  <g>
    <path class="st3" d="M35.2,123c-4-.2-2.9-16.3-8.9-18.5-5.6-2-17.1,8.2-19.6,20.3-.4,2-2.2,12.1,4.7,20.7,5.1,6.4,11.9,8.3,14.1,8.8l20.3-4.1c1.2-1.4,9.6-11.5,6.7-23.5-.9-3.7-2.6-6.5-4.1-8.5-1.3-1-3.1-1.9-5.1-1.7-4.4.5-5.7,6.5-8.1,6.4h0Z"/>
    <path class="st5" d="M25.4,155.8h-.3c-3.4-.8-9.9-3-14.9-9.3-7-8.8-5.6-19.1-5-22,1.9-9.5,8.7-17.1,14.1-20.2,2.9-1.6,5.4-2.1,7.5-1.3,4,1.5,5.3,7.2,6.4,12.2.5,2.1,1.3,5.8,2.1,6.2.3-.1,1.1-1.2,1.6-1.8,1.4-1.8,3.2-4.2,6.3-4.6,2-.2,4,.5,6.1,2,0,0,.2.1.3.1v.2c2.1,2.8,3.6,5.9,4.4,9.1,3,12.3-5.3,22.8-7,24.8l-.3.4-21.2,4.3h-.1ZM45,148.9c2-2.5,8.5-11.5,6-21.8-.7-2.8-1.9-5.4-3.7-7.8-1.3-1-2.6-1.4-3.8-1.3-1.8.2-3,1.8-4.2,3.4-1.2,1.5-2.3,3-4.2,3h0c-2.9-.2-3.8-4.1-4.8-8.6-.9-4.1-2-9.1-4.5-10-1.2-.4-3,0-5,1.1-5,2.9-11,10-12.6,18.2-.5,2.6-1.8,11.7,4.4,19.5,4.2,5.4,9.8,7.4,12.9,8.2l19.5-3.9h0Z"/>
  </g>
  <g>
    <path class="st3" d="M251.3,323.1c3.5,1.9-4.4,16,0,20.5,4.2,4.3,19,0,26.4-10,1.2-1.6,7.1-10,4.7-20.7-1.8-8-7.2-12.6-8.9-14l-20.1-5.1c-1.7.8-13.6,6.3-16.1,18.3-.8,3.7-.5,7,0,9.5.7,1.4,2,3.1,3.9,3.7,4.2,1.4,8-3.4,10.1-2.3h0Z"/>
    <path class="st5" d="M256.3,346.8c-2.7,0-4.9-.7-6.2-2.1-3-3-1.7-8.7-.6-13.7.5-2.2,1.3-5.8.8-6.5-.3-.1-1.5.5-2.2.9-1.9,1-4.6,2.4-7.6,1.4-1.9-.6-3.5-2.1-4.7-4.4v-.2c0,0,0-.2,0-.2-.7-3.5-.7-6.8,0-10.1,2.7-12.4,14.6-18.3,17-19.4l.5-.2,20.9,5.3.3.2c2.8,2.2,7.7,7,9.5,14.8,2.5,11-3.1,19.6-4.9,22-5.8,7.8-15.2,11.8-21.4,12.2h-1.1s-.2,0-.2,0ZM272.7,300.1l-19.3-4.8c-2.9,1.4-12.6,6.7-14.8,17.1-.6,2.8-.6,5.7,0,8.6.8,1.5,1.8,2.4,2.9,2.8,1.8.6,3.6-.3,5.3-1.2s3.5-1.8,5.1-.9h0c2.6,1.4,1.7,5.3.7,9.8-.9,4.1-2,9.1-.2,11,.9.9,2.7,1.4,5,1.2,5.8-.4,14.2-4.3,19.2-11,1.6-2.1,6.6-9.8,4.4-19.5-1.6-6.6-5.7-10.9-8.2-12.9v-.2Z"/>
  </g>
  <g>
    <g>
      <polygon class="st6" points="212.1 316.4 217.9 360.6 190.7 372 183.6 332.3 212.1 316.4"/>
      <path class="st5" d="M189.5,374.1l-7.6-42.6,31.4-17.5,6.2,47.6-30,12.5h0ZM216.2,359.8l-5.3-41-25.6,14.3,6.5,36.8,24.4-10.2h0Z"/>
    </g>
    <g>
      <path class="st4" d="M211,359.6c-10.2-.9-19.9,5.6-23.1,15.7-1.1,15-2.2,30-3.3,45.1-.3,4.3-.6,8.6-1,12.9.1,1.3.6,2.2.9,2.7,2.5,4,8.6,3.5,8.9,3.5,15.4,0,30.9,0,46.3,0l-8.7-58.3c-.4-11.3-9.1-20.5-20-21.5h0Z"/>
      <path class="st5" d="M192.5,441.1c-2.1,0-7-.5-9.3-4.3-.6-1-1-2.1-1.1-3.5h0l4.4-58.1v-.3c3.4-10.7,13.8-17.7,24.7-16.7h0c11.7,1.1,20.9,10.9,21.3,22.9l9,59.9h-48c0,0-.5,0-.9,0h0ZM238,438l-8.5-56.6v-.2c-.4-10.5-8.4-19.2-18.6-20.1-9.5-.9-18.5,5.1-21.5,14.4l-4.3,57.6c0,.8.3,1.4.7,2,2.1,3.3,7.5,2.8,7.5,2.8h44.7Z"/>
    </g>
    <g>
      <path class="st3" d="M250.9,440.7h-53.7c.2-14.4,10.5-26.1,22.7-27.9,14.7-2.2,30.3,10.2,31,27.9Z"/>
      <path class="st5" d="M195.5,442.2v-1.5c.3-14.8,10.6-27.4,24-29.4,7.4-1.1,15.2,1.2,21.5,6.4,6.9,5.6,11,14,11.4,22.9v1.6h-56.8s-.1,0-.1,0ZM249.3,439.3c-.7-7.5-4.3-14.4-10.1-19.2-5.6-4.7-12.6-6.8-19.1-5.8-11.6,1.7-20.5,12.3-21.4,24.9h50.6,0Z"/>
    </g>
  </g>
  <g>
    <g>
      <polygon class="st6" points="128.5 316.4 122.8 360.6 150 372 157 332.3 128.5 316.4"/>
      <path class="st5" d="M151.1,374.1l-30-12.5,6.2-47.6,31.4,17.5-7.6,42.6h0ZM155.3,333l-25.6-14.3-5.3,41,24.4,10.2,6.5-36.8h0Z"/>
    </g>
    <g>
      <path class="st4" d="M129.6,359.6c10.2-.9,19.9,5.6,23.1,15.7,1.1,15,2.2,30,3.3,45.1.3,4.3.6,8.6,1,12.9-.1,1.3-.6,2.2-.9,2.7-2.5,4-8.6,3.5-8.9,3.5h-46.3s8.7-58.3,8.7-58.3c.4-11.3,9.1-20.5,20-21.5h0Z"/>
      <path class="st5" d="M148,440.9h-.9s-48,0-48,0l9-59.9c.4-12,9.6-21.8,21.3-22.9h0c11-1,21.4,6,24.7,16.7,0,0,4.4,58.4,4.4,58.5h0c-.1,1.3-.5,2.4-1.1,3.4-2.3,3.9-7.2,4.3-9.3,4.3h0ZM155.5,433l-4.3-57.6c-3-9.2-12-15.3-21.5-14.4h0c-10.3,1-18.2,9.6-18.6,20.1l-8.5,56.8h44.6s.1,0,.1,0c.1,0,5.5.5,7.5-2.8.4-.6.7-1.3.7-2h0Z"/>
    </g>
    <g>
      <path class="st3" d="M89.8,440.7h53.7c-.2-14.4-10.5-26.1-22.7-27.9-14.7-2.2-30.3,10.2-31,27.9Z"/>
      <path class="st5" d="M88.2,440.6c.4-8.9,4.5-17.3,11.3-22.9,6.3-5.2,14.1-7.5,21.5-6.4,13.4,2,23.7,14.6,24,29.4v1.5h-56.8v-1.6ZM141.9,439.1c-.9-12.6-9.9-23.2-21.4-24.9-6.5-.9-13.5,1.2-19.1,5.8-5.8,4.8-9.4,11.7-10.1,19.2h50.6s0-.1,0-.1Z"/>
    </g>
  </g>
  <g>
    <path class="st3" d="M151.9,333.8h34.7c15.8,0,28.5-12.8,28.5-28.5v-12.6c0-10.1-8.2-18.2-18.2-18.2h-55.3c-10.1,0-18.2,8.2-18.2,18.2v12.6c0,15.8,12.8,28.5,28.5,28.5Z"/>
    <path class="st5" d="M121.9,305.3v-12.6c0-10.8,8.8-19.7,19.7-19.7h55.3c10.8,0,19.7,8.8,19.7,19.7v12.6c0,16.5-13.4,30-30,30h-34.7c-16.5,0-30-13.4-30-30ZM141.6,275.9c-9.2,0-16.7,7.5-16.7,16.7v12.6c0,14.9,12.1,27,27,27h34.7c14.9,0,27-12.1,27-27v-12.6c0-9.2-7.5-16.7-16.7-16.7h-55.3Z"/>
  </g>
  <g>
    <path class="st4" d="M210.6,210.9h-82.7c-13.9,0-25.2,11.3-25.2,25.2v40.3c0,19.6,15.9,35.5,35.5,35.5h62.1c19.6,0,35.5-15.9,35.5-35.5v-40.3c0-13.9-11.3-25.2-25.2-25.2h0Z"/>
    <path class="st5" d="M138.2,313.3c-20.4,0-37-16.6-37-37v-40.3c0-14.7,12-26.7,26.7-26.7h82.7c14.7,0,26.7,12,26.7,26.7v40.3c0,20.4-16.6,37-37,37h-62.1s0,0,0,0ZM127.9,212.4c-13.1,0-23.7,10.6-23.7,23.7v40.3c0,18.8,15.3,34,34,34h62.1c18.8,0,34-15.3,34-34v-40.3c0-13.1-10.6-23.7-23.7-23.7h-82.7Z"/>
  </g>
</svg>