<?xml version="1.0" encoding="UTF-8"?>
<svg id="Layer_1" xmlns="http://www.w3.org/2000/svg" version="1.1" viewBox="0 0 500 500">
  <!-- Generator: Adobe Illustrator 29.0.0, SVG Export Plug-In . SVG Version: 2.1.0 Build 186)  -->
  <defs>
    <style>
      .st0 {
        fill: #3d96ed;
      }

      .st1 {
        fill: #154471;
      }

      .st2 {
        fill: #268beb;
      }

      .st3 {
        fill: #0a275a;
      }

      .st4 {
        fill: #fefefe;
      }
    </style>
  </defs>
  <path class="st0" d="M188.3,203.43c.12,0,1.05.72,2.27.72,10.64.04,21.54.41,32.04-.72v-11.44h63.24c.41,3.31-.88,7.93.67,10.76.14.26.46.46.67.67h32.97c6.57.68,12.57,5.64,14.13,12.11v80.06c-.33,4.85-1.01,6.67-3.36,10.76-1.18,2.05-3.45,4.26-4.04,6.73-.5.64-1.04.97-1.35,1.35-2.22.13-1.83,1.8-2.02,2.02-.52.62-.88.87-1.35,1.35-2.33.13-2.84,1.89-4.77,2.94-2.74,1.48-5.85,2.36-8.71,3.55-.43,12.72,1.58,25.51,2.04,38.29.05,1.29-.68,2.7,1.35,2.32.04.44-.04.9,0,1.35-1.56,5.48.37,12.15.68,17.82l-2.7-.33c-.24-.2-.43-.49-.67-.67-.77-.59-1.22-1.13-2.25-1.53-.78-.31-1.06.2-1.11.19-8.75-2.39-15.41-2.22-22.87,3.36l-3.36,1.34c.44-5.7.47-11.42-.01-17.14-.29-3.47-.98-10.58-2.68-13.13-.27-.41-.43-.92-.67-1.35,1.67-1.68,4.51-2.48,7.4-4.04,9.76-5.26,21.7-13.7,23.55-25.56.07-.42.24-1.42-.38-1.35-34.53.22-69.06-.25-103.59-.02-1.71.01-3.26.8-5.02.7-10.07-.56-24.15-17.35-24.22-27.58v-82.08c1.54-5.78,7.9-11.57,14.13-11.44ZM188.98,205.45c-3.22,3.51-2,7.95-1.02,12.12,4.7,19.79,25.92,33.19,44.74,37-.38,2.87,1.98.7,2.69.67.22,0,.45,0,.67,0-.4,1.81.9,1.36,2.1,1.56,10.88,1.86,23.32,1.62,34.13-.68,1.19-.25,2.51.3,2.11-1.56,16.59-3.49,33.6-13.17,41.82-28.48,2.9-5.4,6.71-15.26,2.58-20.63h-129.84Z"/>
  <path class="st0" d="M264.33,20.44c.25.19.45.46.67.67.77,2.36,2.39,5.36,2.64,7.8s-.94,4.48.05,6.33c-2.04,5.56-3.97,5.02-8.07,7.4-.86.5-.62.8-.71,1.62-.81,7.06.69,15.63.02,22.87-.08.73.87.34,1.36.4,4.61.59,11.24-.03,16.15,0,.28,1.05,2.47,1.01,2.69,0,10.52.05,25.9-1.27,35.66.67.86.17,2.83,1.81,4.04,0,5.95.77,11.63,5.13,15.47,9.42-.12,1.46-.33,2.37,1.35,2.02.16.21.47.38.67.67,1.81,5.52,3.71,8.47,4.05,14.43.6,10.39,0,21.37.02,31.63.01,11.51.88,25.17,0,36.38-.48,6.14-3.32,10.53-6.08,15.79-.2.24-.46.44-.67.67l-.67.67c-1,1-1.38,1.65-2.69,2.69-1.93-.24-3.18,1.14-4.04,2.69-3.76,2.15-6.21,3.62-10.76,4.04h-122.44c-14.81-2.03-25.17-14.63-26.26-29.24-1.58-21.06,1.25-44.04,0-65.31,1.56-13.28,10.17-24.05,23.57-26.55,1.23,1.11,5.48,1.41,4.71-.67,8.76-.59,18.67.04,27.58,0,.09,1.01,1.92,1.01,2.02,0,7.48-.03,15.47.4,22.87,0l1,.67.34-.67c.24-.04.53.07.67,0,.93-.48.63-.79.7-1.64.46-5.12.58-16.64,0-21.63-.09-.82.15-1.12-.71-1.62-2.99-1.73-3.21-.8-6.05-4.04l-2.03-7.07c-.74-6.51,3.03-11.83,8.76-14.46.22-.1.43-.58.67-.67,1.9,1.25,4.42.49,6.77.97,1.39.28,5.54,2.22,6.69,3.07ZM206.47,89.06c-9.77.82-15.87,7.61-19.51,16.15-.6,1.4-1.16,1.1-1.38,3.67-1.21,14.26.44,31.1.72,45.45.33-.07.56-.67.66-.68.43-.06,2.99,5.64,3.75,6.68,3.23,4.46,8.95,8.02,14.42,8.79-.38,2.03,1.03,1.3,2.32,1.35,29.56.99,63.39,1.17,92.9,0,1.3-.05,2.7.69,2.32-1.35,10.34-1.86,16.35-8.37,19.51-18.16,1.25-3.88,1.28-39.12,0-43.06-3.13-9.65-10.09-18.12-20.86-18.84.38-2.04-1.03-1.29-2.32-1.35-28.66-1.13-61.5-.96-90.21,0-1.3.04-2.7-.69-2.32,1.35Z"/>
  <path class="st0" d="M117.66,105.88l3.39,5.69c2.92,7.42.73,15.2,1.29,22.93.18,2.52.81,5.47,3.81,3.06.17-.14,2.13-3.08,2.45-3.62.81-1.34,1.89-2.9,1.85-4.51.23-.21.42-.49.67-.67,1.79-1.31,6.05-3.15,8.26-2.68.49.1,2.89,3.64,3.85,4.02.03.22-.01.45,0,.67.34,7.42-3.55,13.63-6.73,20.18-.09.18.09.49,0,.67-1.2-.32-1.73,1.41-2.39,2.35-.35.5-2.6,3.22-1.65,3.7-1.2,1.61-2.69,3.5-3.36,5.38-.19-.03-1.65,1.04-2.38.02l.36,1.33c-9.54,3.67-17.53,9.44-28.26,5.38-1.52-.58-1.35-1.27-2.69-1.35-.04-.23.06-.49,0-.67-.46-1.52-5.41-5.69-6.65-7.96-3.03-5.51-4.71-12.37-5.48-18.59l.7-17.18c2.37-5.77,6.73-10.86,13.65-9.27,2,.46,2.56,2.47,4.51,2.54-.09-8.43,6.36-15.99,14.8-11.43Z"/>
  <path class="st0" d="M310.07,436.88c-.72,2.03,2.85,1.81,4.04.67,2.55.6,4.94,1.85,7.4,2.69.87.3,1.81.42,2.69.67.08.42-.1.97,0,1.35.09.35,2.41,2.51,3.04,2.67l.33-.65c1.97,1.64,4.1,3.38,5.66,5.44,3.31,4.37,8.17,15.36,3.09,19.45h-58.87c-2.16.16-3.67-1.28-3.69-3.36-.14-11.92,11.26-24.22,22.2-27.58,1.02,1.11,2.1.45,3.24.25,2.77-.47,7.11-1.52,9.54-1.6.45-.02.9,0,1.35,0Z"/>
  <path class="st0" d="M184.27,436.21c1.99-.44.96,1.25,2.02,3.36.11.23.45.53.67.67,1.51.98,1.7-.31,3.6-.78,2.79-.7,7.51-1.89,10.23-1.93s5.52,1.69,7.7.02c9.43,1.75,18.85,9.12,22.78,17.92,1.56,3.5,1.79,7.03,3.46,10.33-.21.62,1.54-.25-1.12,2.26-.34.32-.17,1.06-.23,1.1-.12.09-.45-.06-.67,0h-61.22c-4.88-3.92-.45-12.54,2.02-16.82l2.69-4.04c1.25-1.57,2.07-2.11,3.36-3.36.89-.13,4.69-2.23,5.1-2.67.72-.75-.4-1.3-.4-1.37-.01-1.56-.08-3.16,0-4.71Z"/>
  <path class="st0" d="M382.06,333.27l.69,3.37c.27-.1.6-.69.66-.68.95.15,1.85,3.59,2.02,4.71-1.01.09-1.01,1.92,0,2.02.02.22-.01.45,0,.67l-.67,16.15c-.86,2.93-1.76,4.41-3.36,6.73-1,1.44-2.79,1.75-2.69,4.04-.46.52-.91.89-1.35,1.35l-1.35,1.35c-.23.21-.43.47-.67.67-2.95,1.07-5.29,3.21-8.45,4-2.54.63-11.64,1.53-12.97-.74-.54-.93.56-3.2-.79-3.93,1.54-5.04,13.97-16.74,8.05-21.84-6.38-5.5-8.39,8.07-11.21,9.77-4,2.4-8.32-1.02-8.91-5.13-.81-5.59,4.72-13.48,8.71-17.11.22-.2,2.15.28,2.02-2.69-.01-.23.06-.53,0-.67,2.28-1.76,3.08.99,3.9,1.28,6.29,2.29,16.1,3.01,22.39.42,1.17-.48,1.04-1.09,1.56-1.47.43-.31,1.31-.14,1.58-.39.42-.39.08-1.07.17-1.19.19-.26.57-.47.67-.67Z"/>
  <path class="st0" d="M201.09,325.87c2.75,9.8,11.17,18.7,20.15,23.24,1.8.91,7.06,3.26,8.78,3.67,1.13.18,1.26,1.94,1.35,2.02-.18.21-.63.47-.67.67-.93.32-1.06,1.85,0,2.02-.02.22.03.45,0,.67-2.11-.38-1.15,1.04-1.36,2.31-.85,5.29-1.61,10.84-2,16.2-.21,2.95,1.11,7.87-1.35,9.75-.17-.2-1.9-1.93-2.02-2.02l-5.86-3.9c-6.43-2.25-12.21-1.9-18.35.89-1.08.49-3.61,1.42-3.38,3.01-.23.19-.47.45-.67.67l3.33-58.83c.22-.82,1.46-.21,2.05-.37Z"/>
  <path class="st0" d="M355.15,229.67c8.62,7.72,14.13,28.61,17.49,39.69-2.01,1.96,2.63,9.44,1.34,10.76-3.75-.98-6.79-2.84-11.06-2.71-5.71.18-9.57,3.6-14.5,4.73-.32-.34.65-5.26-2.02-4.71-2.01-9.65-5.63-17.76-10-26.48,4.08-3.01,7.43-5.92,10.67-9.85.41-.5,1.26-.71,1.92-1.76,2-3.18,3.04-8.61,2.79-12.36,1.12.83,2.32,1.76,3.36,2.69Z"/>
  <path class="st0" d="M143.23,204.1c.19.57-.17,1.55.35,2.66.49,1.05,1.68,1.41,2.34,2.05.08.08-.24.96.42,1.4.9.6,5.52,1.61,6.98,1.97.21.05.46-.05.67,0l1.35.67c.22.04.46-.04.67,0,3.83,2.61,9.63,2.43,14.13,2.69v28.93c-5.6-.96-11.23-2.17-16.66-3.86s-11.16-4.18-15.63-6.23c-.19-.08-.49.09-.67,0,.07-1.14.24-1.57-1-1.34l-.34.67c-2.47-1.1-5.76-3.27-7.4-5.38l-4.71-6.05c4.21-.69,7.52-2.79,10.76-5.39.24-.19.43-.47.67-.67,2.38-.22,3.82-1.68,4.04-4.04.2-.24.49-.43.67-.67.62-.8,1.59-1.45,1.86-2.51.56-2.18-.86-5.45,1.51-4.89Z"/>
  <path class="st0" d="M160.05,111.26c1.72-.39,3.24-1.16,5.38-.68v40.37c-5.52.75-10.11-1.45-12.11-6.73.11-3.1.52-7.35-.67-10.09-.05-2.23-.05-4.5,0-6.73,1.12-1.36,1.15-5.24,0-6.73.05-.66-.1-1.4,0-2.02l3.32-5.09,4.08-2.31Z"/>
  <path class="st0" d="M352.46,113.28c.66.54.8.6,1.35,1.35,1.14,5.18,1.43,10.5,1.37,15.84-.05,4.35-1.95,9.99-.02,14.43-.41,1.37-1.63,2.51-2.69,3.36-1.35.21-8.07,2.74-8.07.34v-37.34l8.07,2.02Z"/>
  <path class="st2" d="M198.4,324.53c1.76.1,3.31-.69,5.02-.7,34.53-.23,69.06.24,103.59.02.61-.07.44.94.38,1.35l-104.02-.05c-.97-.33-1.75.58-2.27.72-.59.17-1.84-.44-2.05.37l-3.33,58.83c-2.52,2.73-3.76,6.25-4.66,9.81l-4.76,44.68c-1.06-2.11-.03-3.8-2.02-3.36.45-9.23,3.17-41.43,6.61-48.22,1.58-3.11,4.28-4.28,4.06-8.71l3.45-54.75Z"/>
  <path class="st0" d="M336.31,248.51v-34.98c1.2-.23,1.94.32,2.92.78,1.8.85,8.3,5.85,9.49,7.33,4.8,5.93-4.51,25.18-12.41,26.87Z"/>
  <path class="st2" d="M277.11,356.15c1.7,2.55,2.39,9.66,2.68,13.13.48,5.73.45,11.44.01,17.14l3.36-1.34c-5.07,3.79-5.09,7.89-5.97,13.88-2.47,16.72-5.57,39.77-6.17,56.4-.13,3.67-.66,8.15,2.72,10.46.02,2.09,1.53,3.52,3.69,3.36h58.87c-.98.79-1.49,1.49-3.01,1.36-17.47-1.49-38.09,1.93-55.19-.02-4.26-.49-9.03-4.86-9.72-9.12-.27-1.7-.12-4.22-.03-6.01.93-19.76,5.76-40.55,6.8-60.47.75-4.69,3.47-7.3,3.94-12.21.84-8.72-1.5-17.88-2.01-26.56Z"/>
  <path class="st2" d="M230.69,358.17c-1.62,13.35-4.28,24.76,1.94,37.42.72,19.72,6.2,40.97,6.83,60.44.14,4.18.29,5.91-2.04,9.45-.55.83-2.82,3.69-4.04,3.7.05-.04-.11-.78.23-1.1,2.66-2.52.91-1.65,1.12-2.26,2.66-7.73,2.06-9.73,1.34-17.82-1.6-17.9-4.83-35.73-6.21-53.67-.52-2.28-2.37-6.13-3.88-7.9,2.47-1.88,1.14-6.8,1.35-9.75.39-5.36,1.14-10.9,2-16.2.2-1.27-.76-2.69,1.36-2.31Z"/>
  <path class="st2" d="M96.14,168.45c1.34.08,1.17.77,2.69,1.35-.39,7.66,2.03,15.04,4.4,22.18,1.96,5.91,9.82,26.23,15.28,28.45,5.21,2.11,11.35-1.33,15.97-3.53-3.24,2.6-6.56,4.7-10.76,5.39l4.71,6.05c-2.45-.62-3.15-3.5-5.42-4.34-2.96-1.09-5.17-.5-8.2-3.05-8.12-6.85-17.28-36.96-18.68-47.78,2,.59,2.14-2.54,0-2.02-.07-.87.13-1.88,0-2.69Z"/>
  <path class="st2" d="M312.09,366.24c.4,4.75.51,13.66,1.36,17.69.07.31,3.13,3.15,3.94,4.93,5.04,11.05,4.33,38.43,6.81,52.06-.88-.25-1.82-.38-2.69-.67l-4.88-45.24c-.98-4.73-2.94-8.25-6.55-11.28l2.7.33c-.31-5.67-2.24-12.35-.68-17.82ZM322.85,438.22v-4.03h-.66v4.03h.66Z"/>
  <path class="st2" d="M372.64,269.36c2.03,6.7,2.63,8.11,5.75,14.09,4.8,9.19,10.37,38.61,7.05,48.19-.75,2.16-2.24,2.22-2.04,4.33-.06,0-.38.58-.66.68l-.69-3.37c1.06-2.04,1.78-4.09,2.01-6.4.84-8.37-3.94-37.62-9.1-44.03-4.3-5.34-14.07-4.71-19.82-2.37-4.67,1.9-7.16,4.44-7.9,9.59-.95,6.63,1.19,33.02,3.37,39.33,3.67,10.61,22.69,9.51,30.76,4.56-.09.12.26.81-.17,1.19-.27.25-1.16.08-1.58.39-.52.38-.39.99-1.56,1.47-6.29,2.59-16.1,1.87-22.39-.42-.82-.3-1.62-3.04-3.9-1.28-.12-.28-2.01-1.96-2.57-3.15-3.46-7.3-5.07-34.52-4.16-42.93.68-6.34,3.09-3.41,1.35-11.77,2.67-.55,1.7,4.37,2.02,4.71,4.94-1.14,8.79-4.56,14.5-4.73,4.27-.13,7.3,1.73,11.06,2.71,1.29-1.32-3.35-8.8-1.34-10.76Z"/>
  <path class="st2" d="M283.84,350.77c-2.89,1.56-5.73,2.35-7.4,4.04-2.62,2.63-42.13,2.68-45.07,0-.09-.08-.21-1.84-1.35-2.02,2.36.57,8.47,1.21,11.07,1.37,13.9.86,29.41.43,42.75-3.39Z"/>
  <path class="st2" d="M129.1,163.07c2.14.39,12.5,36.19,14.13,41.04-2.37-.56-.95,2.71-1.51,4.89-.27,1.06-1.24,1.71-1.86,2.51.1-1.5,1.23-2.98,1.3-4.42.23-4.72-9.75-31.95-12.05-38.31-.53-1.46-1.06-3.15-2.03-4.36l-.36-1.33c.73,1.02,2.18-.06,2.38-.02Z"/>
  <path class="st2" d="M334.29,178.54c2.76-5.26,5.59-9.64,6.08-15.79.88-11.21.02-24.87,0-36.38-.01-10.25.58-21.23-.02-31.63-.34-5.96-2.24-8.92-4.05-14.43,2.72,4,4.85,8.14,5.39,13.11,2.31,21.41-1.76,46.81.02,68.65-.77,6.67-3.32,11.43-7.42,16.46Z"/>
  <path class="st2" d="M156.01,212.85c5.15.97,10.19,1.76,15.47,1.35v31.62c-11.45-2.23-24.11-4.41-33.64-11.44,4.47,2.05,10.42,4.61,15.63,6.23s11.06,2.9,16.66,3.86v-28.93c-4.49-.26-10.3-.08-14.13-2.69Z"/>
  <path class="st2" d="M315.46,189.3h-122.44,122.44Z"/>
  <path class="st2" d="M232.71,469.17c-.47,1.55-1.74,1.3-2.99,1.38-17.91,1.2-37.17-.99-55.22-.02-1.51.13-2.03-.58-3.01-1.36h61.22Z"/>
  <path class="st2" d="M352.46,113.28l-8.07-2.02v37.34c0,2.4,6.72-.12,8.07-.34-3.16,2.53-5.06,3.09-9.42,2.69v-40.37c4.33-.45,6.17.04,9.42,2.69Z"/>
  <path class="st2" d="M188.3,203.43h32.97v-12.11h65.26v11.44c-1.55-2.84-.26-7.46-.67-10.76h-63.24v11.44c-10.5,1.13-21.39.77-32.04.72-1.23,0-2.16-.72-2.27-.72Z"/>
  <path class="st2" d="M174.18,296.95v-82.08,82.08Z"/>
  <path class="st2" d="M322.18,317.8c-3.77,3.84-8.03,5.61-12.8,7.85.96,13.07,1.66,26.18,2.71,39.24-2.03.38-1.3-1.03-1.35-2.32-.46-12.78-2.48-25.56-2.04-38.29,2.86-1.19,5.97-2.06,8.71-3.55,1.93-1.04,2.44-2.8,4.77-2.94Z"/>
  <path class="st2" d="M334.29,295.6v-80.06c-1.32,26.18,1.76,54.08,0,80.06Z"/>
  <path class="st2" d="M117.66,105.88c2.81,1.52,3.66,3.23,4.73,6.37.7,2.05,2,7.53,2,9.44v15.14c2.94-1.75,3.48-5.11,6.05-7.4.04,1.62-1.04,3.18-1.85,4.51-.33.54-2.28,3.49-2.45,3.62-2.99,2.41-3.62-.54-3.81-3.06-.56-7.73,1.63-15.51-1.29-22.93l-3.39-5.69Z"/>
  <path class="st2" d="M84.7,124.05l-.7,17.18c.77,6.22,2.45,13.08,5.48,18.59,1.25,2.27,6.19,6.43,6.65,7.96l-5.4-4.55c-7.39-9.28-10.55-28.21-6.04-39.18Z"/>
  <path class="st2" d="M260.29,67.53c-.49-.06-1.43.33-1.36-.4.66-7.24-.84-15.81-.02-22.87.09-.82-.15-1.12.71-1.62l.67,24.89Z"/>
  <path class="st2" d="M355.15,144.9c-1.92-4.44-.03-10.08.02-14.43.06-5.34-.23-10.66-1.37-15.84,1.29,1.75,1.72,1.66,2.02,4.38.52,4.8.58,21.75-.67,25.9Z"/>
  <path class="st2" d="M320.17,203.43h-32.97c10.54.8,22.62-1.08,32.97,0Z"/>
  <path class="st2" d="M250.2,17.08c-5.73,2.63-9.49,7.94-8.76,14.46l2.03,7.07c-6.47-7.36-2.91-19.33,6.73-21.53Z"/>
  <path class="st2" d="M353.13,372.97c1.34.73.25,3,.79,3.93,1.33,2.28,10.43,1.37,12.97.74,3.15-.78,5.5-2.93,8.45-4-1.75,1.5-2.31,2.59-4.72,3.69-5.26,2.41-20.39,5.16-17.48-4.36Z"/>
  <path class="st2" d="M249.53,67.53v-24.89c.86.5.62.8.71,1.62.58,4.99.45,16.51,0,21.63-.08.85.23,1.16-.7,1.64Z"/>
  <path class="st2" d="M384.75,359.51l.67-16.15c2.26,4.74.75,11.29-.67,16.15Z"/>
  <path class="st2" d="M250.87,16.4c4.39-1.7,10.76.14,13.46,4.04-1.15-.85-5.3-2.78-6.69-3.07-2.35-.48-4.87.28-6.77-.97Z"/>
  <path class="st2" d="M131.12,128.76c2.05-6.49,11.45-4.32,12.11,1.35-.96-.39-3.36-3.92-3.85-4.02-2.21-.47-6.48,1.37-8.26,2.68Z"/>
  <path class="st2" d="M136.5,150.96c3.17-6.55,7.07-12.77,6.73-20.18,2.45,1.06.86,5.47.32,7.38-1.16,4.08-4.15,9.7-7.05,12.8Z"/>
  <path class="st2" d="M355.15,229.67c-1.04-.93-2.23-1.86-3.36-2.69.24,3.76-.79,9.18-2.79,12.36-.66,1.05-1.51,1.27-1.92,1.76,2.5-5.13,4.45-10.29,4.04-16.15l4.03,4.71Z"/>
  <path class="st2" d="M267.69,35.24c-.99-1.85.2-3.96-.05-6.33s-1.87-5.44-2.64-7.8c3.88,3.72,4.46,9.31,2.69,14.13Z"/>
  <path class="st2" d="M153.32,144.23c-1.2-3.16-.6-6.66-.67-10.09,1.19,2.74.78,6.99.67,10.09Z"/>
  <path class="st2" d="M195.03,67.53c.77,2.09-3.48,1.78-4.71.67,1.57-.29,3.1-.56,4.71-.67Z"/>
  <path class="st2" d="M153.32,212.18c-1.46-.35-6.08-1.36-6.98-1.97-.66-.44-.33-1.32-.42-1.4l7.4,3.36Z"/>
  <path class="st2" d="M152.65,127.41c.05-2.22-.16-4.52,0-6.73,1.15,1.49,1.12,5.37,0,6.73Z"/>
  <path class="st2" d="M184.27,440.92c0,.07,1.11.62.4,1.37-.42.44-4.22,2.53-5.1,2.67,1.49-1.44,2.87-2.98,4.71-4.04Z"/>
  <path class="st2" d="M160.05,111.26l-4.08,2.31-3.32,5.09c.39-2.5,2.94-6.22,5.21-7.26.72-.33,1.6,0,2.19-.14Z"/>
  <path class="st2" d="M330.26,182.58c-1.44,1.15-2.46,1.79-4.04,2.69.86-1.55,2.11-2.93,4.04-2.69Z"/>
  <path class="st0" d="M96.14,171.14c2.14-.52,2,2.61,0,2.02-.08-.65.06-1.36,0-2.02Z"/>
  <path class="st2" d="M318.82,68.21c-1.21,1.81-3.18.17-4.04,0,1.3.11,2.78-.16,4.04,0Z"/>
  <path class="st2" d="M326.89,313.09c.59-2.47,2.86-4.68,4.04-6.73-.1,2.42-2.53,4.78-4.04,6.73Z"/>
  <path class="st2" d="M335.64,79.64c-1.68.35-1.46-.55-1.35-2.02.98,1.09.94,1.48,1.35,2.02Z"/>
  <path class="st2" d="M136.5,151.63c-1.42,2.94-2.27,3.68-4.04,6.05-.95-.48,1.31-3.2,1.65-3.7.66-.95,1.19-2.67,2.39-2.35Z"/>
  <path class="st2" d="M135.83,233.71l.34-.67c1.24-.23,1.07.19,1,1.34-.48-.22-.96-.5-1.35-.67Z"/>
  <path class="st2" d="M279.13,67.53c-.22,1.01-2.41,1.05-2.69,0,.9,0,1.79,0,2.69,0Z"/>
  <path class="st2" d="M381.39,366.24c.02,2.05-1.51,2.72-2.69,4.04-.1-2.29,1.69-2.6,2.69-4.04Z"/>
  <path class="st2" d="M351.79,335.97c.13,2.98-1.8,2.49-2.02,2.69-.21-1.47,1.4-1.55,2.02-2.69Z"/>
  <path class="st2" d="M325.55,314.44c-.58.71-.27,2.36-2.02,2.02.18-.22-.2-1.89,2.02-2.02Z"/>
  <path class="st2" d="M324.2,442.26c1.96-.1,2.35,1.17,3.36,2.02l-.33.65c-.63-.16-2.95-2.32-3.04-2.67Z"/>
  <path class="st2" d="M230.69,357.49c-1.06-.17-.93-1.7,0-2.02-.11.58.05,1.37,0,2.02Z"/>
  <path class="st2" d="M385.42,342.69c-1.01-.09-1.01-1.92,0-2.02.09.63-.05,1.36,0,2.02Z"/>
  <path class="st2" d="M224.63,67.53c-.09,1.01-1.92,1.01-2.02,0,.67,0,1.35,0,2.02,0Z"/>
  <path class="st2" d="M155.34,212.85l-1.35-.67c.98.24,1.27.66,1.35.67Z"/>
  <path class="st2" d="M248.85,67.53l-.34.67-1-.67c.44-.02.94.07,1.35,0Z"/>
  <path class="st2" d="M173.5,452.35c.93-1.61,1.52-2.57,2.69-4.04l-2.69,4.04Z"/>
  <path class="st2" d="M376,372.97l1.35-1.35c-.48.5-.82.87-1.35,1.35Z"/>
  <path class="st2" d="M332.95,179.89l.67-.67c-.21.24-.45.45-.67.67Z"/>
  <path class="st4" d="M318.82,205.45c4.14,5.38.32,15.23-2.58,20.63-8.22,15.31-25.24,24.99-41.82,28.48-15.16,3.19-23.92,1.06-38.35.67-.22,0-.45,0-.67,0-.9-.2-1.79-.49-2.69-.67-18.83-3.8-40.05-17.21-44.74-37-.99-4.16-2.2-8.61,1.02-12.12h129.84Z"/>
  <path class="st4" d="M306.04,381.71l3.36,1.35c.24.18.43.47.67.67,3.61,3.03,5.57,6.55,6.55,11.28l4.88,45.24c-2.46-.84-4.85-2.09-7.4-2.69-1.11-.26-2.98-.68-4.04-.67-.45,0-.9-.02-1.35,0-4.59-.27-8.4,0-12.78,1.35-10.94,3.36-22.34,15.67-22.2,27.58-3.38-2.31-2.85-6.79-2.72-10.46.6-16.62,3.7-39.68,6.17-56.4.88-5.98.9-10.09,5.97-13.88,7.47-5.58,14.12-5.75,22.87-3.36Z"/>
  <path class="st4" d="M307.38,325.2c-1.85,11.87-13.78,20.3-23.55,25.56-13.34,3.83-28.84,4.25-42.75,3.39-2.61-.16-8.71-.81-11.07-1.37-1.71-.41-6.98-2.76-8.78-3.67-8.98-4.54-17.4-13.44-20.15-23.24.52-.14,1.3-1.05,2.27-.72l104.02.05Z"/>
  <path class="st2" d="M318.82,205.45h-129.84,129.84Z"/>
  <path class="st2" d="M274.42,254.56c.4,1.86-.92,1.3-2.11,1.56-10.81,2.29-23.26,2.53-34.13.68-1.2-.21-2.5.25-2.1-1.56,14.43.39,23.19,2.52,38.35-.67Z"/>
  <path class="st2" d="M235.4,255.23c-.71.03-3.07,2.19-2.69-.67.9.18,1.79.47,2.69.67Z"/>
  <path class="st2" d="M309.4,383.06l-3.36-1.35c.05.01.33-.49,1.11-.19,1.03.4,1.48.94,2.25,1.53Z"/>
  <path class="st4" d="M206.47,89.06c30.36-2.53,64.14,1.9,94.86,0,10.77.72,17.72,9.18,20.86,18.84v43.06c-3.16,9.8-9.17,16.3-19.51,18.16-1.54.28-2.65.59-4.34.7-30.04,1.99-63.03-1-93.21-.7-5.47-.78-11.19-4.33-14.42-8.79-.75-1.04-3.32-6.74-3.75-6.68v-48.44c3.64-8.54,9.74-15.33,19.51-16.15ZM215.89,144.9c.31.19.26,1.07,1.66,1.33,3.78.71,8.46-1.11,9.04-5.07.52-3.54.63-20.89-.08-24.04-1.52-6.72-12.74-7.26-13.94.57-.6,3.91-.6,18.88,0,22.79.44,2.89,1.37,3.2,3.32,4.42ZM282.49,142.88c.22.41.1,1.14.63,1.7,3.11,3.33,10.92,1.99,12.01-2.85.67-3,.63-20.74.1-24.04-1.16-7.36-12.36-7.6-13.95-.57-.75,3.31-.58,18.92-.16,22.76.22,2.03.74,1.84,1.36,3Z"/>
  <path class="st2" d="M206.47,89.06c-.38-2.03,1.03-1.3,2.32-1.35,28.71-.96,61.55-1.13,90.21,0,1.3.05,2.7-.69,2.32,1.35-30.71,1.9-64.5-2.53-94.86,0Z"/>
  <path class="st2" d="M302.67,169.12c.38,2.04-1.03,1.29-2.32,1.35-29.51,1.17-63.34.99-92.9,0-1.3-.04-2.7.69-2.32-1.35,30.17-.29,63.17,2.69,93.21.7,1.69-.11,2.8-.43,4.34-.7Z"/>
  <path class="st2" d="M186.96,153.65c-.1.01-.32.62-.66.68-.28-14.35-1.93-31.19-.72-45.45.22-2.57.78-2.27,1.38-3.67v48.44Z"/>
  <path class="st2" d="M322.18,150.96v-43.06c1.28,3.94,1.25,39.17,0,43.06Z"/>
  <path class="st4" d="M127.08,164.41c.97,1.22,1.5,2.9,2.03,4.36,2.3,6.36,12.28,33.59,12.05,38.31-.07,1.44-1.2,2.91-1.3,4.42-.18.24-.47.43-.67.67-1.09,1.28-2.76,2.96-4.04,4.04-.24.2-.43.48-.67.67-4.63,2.19-10.76,5.64-15.97,3.53-5.46-2.22-13.32-22.54-15.28-28.45-2.37-7.13-4.79-14.52-4.4-22.18,10.72,4.06,18.72-1.71,28.26-5.38Z"/>
  <path class="st2" d="M308.73,436.88c-2.43.08-6.77,1.13-9.54,1.6-1.15.2-2.22.86-3.24-.25,4.38-1.35,8.19-1.61,12.78-1.35Z"/>
  <path class="st2" d="M314.11,437.55c-1.19,1.14-4.76,1.35-4.04-.67,1.06,0,2.93.41,4.04.67Z"/>
  <path class="st4" d="M223.96,384.4c.11.09,1.85,1.82,2.02,2.02,1.5,1.76,3.36,5.62,3.88,7.9,1.38,17.94,4.6,35.77,6.21,53.67.72,8.09,1.32,10.09-1.34,17.82-1.67-3.3-1.9-6.83-3.46-10.33-3.93-8.8-13.34-16.17-22.78-17.92-7.16-1.33-15.18-1.14-21.53,2.69-.22-.15-.56-.45-.67-.67l4.76-44.68c.89-3.56,2.13-7.08,4.66-9.81.2-.22.45-.48.67-.67,6.68-5.62,20.78-5.16,27.58,0Z"/>
  <path class="st2" d="M208.49,437.55c-2.18,1.67-5.11-.06-7.7-.02-2.72.04-7.44,1.23-10.23,1.93-1.89.47-2.09,1.76-3.6.78,6.35-3.83,14.36-4.02,21.53-2.69Z"/>
  <path class="st4" d="M382.06,333.27c-.1.2-.48.42-.67.67-8.08,4.95-27.09,6.05-30.76-4.56-2.18-6.31-4.33-32.7-3.37-39.33.74-5.15,3.23-7.69,7.9-9.59,5.75-2.34,15.52-2.97,19.82,2.37,5.16,6.41,9.94,35.66,9.1,44.03-.23,2.31-.95,4.36-2.01,6.4Z"/>
  <path class="st2" d="M196.38,384.4c-.23-1.59,2.3-2.52,3.38-3.01,6.14-2.79,11.92-3.14,18.35-.89l5.86,3.9c-6.8-5.16-20.91-5.62-27.58,0Z"/>
  <path class="st2" d="M135.16,216.21c1.28-1.08,2.95-2.76,4.04-4.04-.22,2.36-1.66,3.81-4.04,4.04Z"/>
  <rect class="st0" x="322.19" y="434.19" width=".66" height="4.03"/>
  <path class="st3" d="M282.49,142.88c.09.23,3.42,2.23,4.02,2.39,2.69.71,6.6-.54,7.27-3.54.69-3.09.64-21.3.1-24.71-.84-5.32-10.2-4.89-11.25-1.25l-.14,27.1c-.62-1.16-1.14-.97-1.36-3-.42-3.84-.59-19.44.16-22.76,1.58-7.03,12.78-6.79,13.95.57.52,3.3.57,21.04-.1,24.04-1.09,4.84-8.9,6.19-12.01,2.85-.52-.56-.41-1.29-.63-1.7Z"/>
  <path class="st3" d="M215.89,144.9c-1.95-1.21-2.88-1.52-3.32-4.42-.6-3.91-.6-18.88,0-22.79,1.2-7.84,12.43-7.3,13.94-.57.71,3.16.6,20.51.08,24.04-.58,3.96-5.26,5.78-9.04,5.07-1.41-.27-1.35-1.14-1.66-1.33,2.36,1.73,8.46.47,9.27-3.17.61-2.77.67-22.5.13-25.4-.79-4.27-8.84-4.18-10.78-.72-2.27,4.05.42,20.68-.7,26.29.51.5,1.93,2.9,2.08,3Z"/>
  <path class="st1" d="M282.49,142.88l.14-27.1c1.05-3.65,10.41-4.07,11.25,1.25.54,3.4.59,21.62-.1,24.71-.67,3-4.58,4.25-7.27,3.54-.6-.16-3.93-2.15-4.02-2.39Z"/>
  <path class="st1" d="M215.89,144.9c-.15-.11-1.57-2.5-2.08-3,1.12-5.61-1.57-22.25.7-26.29,1.94-3.45,9.99-3.55,10.78.72.54,2.9.49,22.63-.13,25.4-.81,3.64-6.92,4.9-9.27,3.17Z"/>
</svg>